# xmcd
#
# Track frame offsets: 
#        150
#        10971
#        21773
#        35512
#        44476
#        54302
#        64189
#        77125
#        86046
#        98336
#        106591
#        119899
#
# Disc length: 1725 seconds
#
# Revision: 1
# Processed by: cddbd v1.5.2PL0 Copyright (c) Steve Scherf et al.
# Submitted via: ExactAudioCopy v0.99pb5
#
DISCID=9306bb0c
DTITLE=Big Maybelle - Got a Brand New Bag
DYEAR=2009
DGENRE=Blues
TTITLE0=96 Tears
TTITLE1=Mellow Yellow
TTITLE2=That's Life
TTITLE3=There Must Be A Word
TTITLE4=Eleanor Rigby
TTITLE5=Love Is A Hurtin' Thing
TTITLE6=I Can't Control Myself
TTITLE7=Cabaret
TTITLE8=Black Is Black
TTITLE9=Coming On Strong
TTITLE10=Egg Plant That Ate Chicago
TTITLE11=Turn The World Around The Other Way
EXTD=YEAR: 2009
EXTT0=
EXTT1=
EXTT2=
EXTT3=
EXTT4=
EXTT5=
EXTT6=
EXTT7=
EXTT8=
EXTT9=
EXTT10=
EXTT11=
PLAYORDER=
